<?xml version="1.0" encoding="utf-8"?>
<!-- Generator: Adobe Illustrator 25.0.1, SVG Export Plug-In . SVG Version: 6.00 Build 0)  -->
<svg version="1.1" id="Layer_1" focusable="false" xmlns="http://www.w3.org/2000/svg" xmlns:xlink="http://www.w3.org/1999/xlink"
	 x="0px" y="0px" width="18px" height="17.6px" viewBox="0 0 18 17.6" style="enable-background:new 0 0 18 17.6;"
	 xml:space="preserve">
<style type="text/css">
	.st0{fill:#616162;}
</style>
<path class="st0" d="M6,14.1c0,0.1-0.1,0.1-0.2,0.1c-0.1,0-0.2,0-0.2-0.1c0-0.1,0.1-0.1,0.2-0.1C5.9,14,6,14,6,14.1z M4.9,14
	c0,0.1,0,0.2,0.2,0.2c0.1,0,0.2,0,0.2-0.1c0-0.1,0-0.2-0.2-0.2C5,13.9,4.9,13.9,4.9,14L4.9,14z M6.5,13.9c-0.1,0-0.2,0.1-0.2,0.2
	c0,0.1,0.1,0.1,0.2,0.1c0.1,0,0.2-0.1,0.2-0.2C6.7,13.9,6.6,13.9,6.5,13.9z M8.9,0C3.9,0,0,3.8,0,8.9c0,4,2.5,7.5,6.2,8.7
	c0.5,0.1,0.6-0.2,0.6-0.4c0-0.2,0-1.5,0-2.2c0,0-2.5,0.5-3.1-1.1c0,0-0.4-1.1-1-1.3c0,0-0.8-0.6,0.1-0.6c0,0,0.9,0.1,1.4,0.9
	c0.8,1.4,2.1,1,2.6,0.8c0.1-0.6,0.3-1,0.6-1.2c-2-0.2-4.1-0.5-4.1-4c0-1,0.3-1.5,0.9-2.1C4.1,6,3.7,5,4.2,3.8c0.8-0.2,2.5,1,2.5,1
	C7.5,4.5,8.3,4.4,9,4.4c0.8,0,1.6,0.1,2.3,0.3c0,0,1.7-1.2,2.5-1C14.3,5,14,6,13.9,6.2c0.6,0.6,0.9,1.1,0.9,2.1c0,3.5-2.1,3.8-4.2,4
	c0.3,0.3,0.6,0.8,0.6,1.7c0,1.2,0,2.7,0,3c0,0.2,0.2,0.5,0.6,0.4c3.6-1.2,6.1-4.6,6.1-8.7C18,3.8,13.9,0,8.9,0z M3.5,12.5
	c0,0,0,0.1,0,0.2c0.1,0.1,0.1,0.1,0.2,0c0,0,0-0.1,0-0.2C3.7,12.5,3.6,12.5,3.5,12.5z M3.1,12.2c0,0,0,0.1,0.1,0.1
	c0.1,0,0.1,0,0.2,0c0,0,0-0.1-0.1-0.1C3.2,12.2,3.2,12.2,3.1,12.2z M4.3,13.5c-0.1,0,0,0.2,0,0.2c0.1,0.1,0.2,0.1,0.2,0
	c0,0,0-0.2,0-0.2C4.5,13.5,4.4,13.5,4.3,13.5z M3.9,13c-0.1,0-0.1,0.1,0,0.2c0.1,0.1,0.2,0.1,0.2,0.1c0.1,0,0.1-0.1,0-0.2
	C4,13,4,12.9,3.9,13L3.9,13z"/>
</svg>
