<?xml version="1.0" encoding="utf-8"?>
<!-- Generator: Adobe Illustrator 25.0.1, SVG Export Plug-In . SVG Version: 6.00 Build 0)  -->
<svg version="1.1" id="Layer_1" focusable="false" xmlns="http://www.w3.org/2000/svg" xmlns:xlink="http://www.w3.org/1999/xlink"
	 x="0px" y="0px" width="20px" height="16.2px" viewBox="0 0 20 16.2" style="enable-background:new 0 0 20 16.2;"
	 xml:space="preserve">
<style type="text/css">
	.st0{fill:#616162;}
</style>
<path class="st0" d="M17.9,4c0,0.2,0,0.4,0,0.5c0,5.4-4.1,11.7-11.7,11.7c-2.3,0-4.5-0.7-6.3-1.8c0.3,0,0.6,0.1,1,0.1
	c1.9,0,3.7-0.6,5.1-1.7c-1.8,0-3.3-1.2-3.8-2.8c0.3,0,0.5,0.1,0.8,0.1c0.4,0,0.7-0.1,1.1-0.1c-1.9-0.4-3.3-2-3.3-4V5.7
	C1.4,6,2,6.2,2.7,6.2c-1.1-0.7-1.8-2-1.8-3.4C0.8,2,1,1.3,1.4,0.7c2,2.5,5.1,4.1,8.5,4.3C9.8,4.7,9.7,4.4,9.7,4.1
	c0-2.3,1.8-4.1,4.1-4.1c1.2,0,2.2,0.5,3,1.3c0.9-0.2,1.8-0.5,2.6-1c-0.3,1-1,1.8-1.8,2.3c0.8-0.1,1.6-0.3,2.4-0.6
	C19.4,2.7,18.7,3.5,17.9,4L17.9,4z"/>
</svg>
